<?xml version="1.0" encoding="utf-8"?>
<!-- Generator: Adobe Illustrator 22.0.0, SVG Export Plug-In . SVG Version: 6.00 Build 0)  -->
<svg version="1.1" id="Layer_1" xmlns="http://www.w3.org/2000/svg" xmlns:xlink="http://www.w3.org/1999/xlink" x="0px" y="0px"
	 viewBox="0 0 200 39.8" style="enable-background:new 0 0 200 39.8;" xml:space="preserve">
<style type="text/css">
	.st0{fill:#FFFFFF;}
	.st1{fill:#0066FF;}
</style>
<title>fmcx</title>
<g>
	<path class="st0" d="M141.3,39.8h-27.2c-4.6,0-8.3-3.7-8.3-8.3V8.3c0-4.6,3.7-8.3,8.3-8.3h27.2v5.7h-27.2c-1.4,0-2.6,1.1-2.6,2.6
		v23.2c0,1.4,1.1,2.6,2.6,2.6h27.2V39.8z"/>
	<path class="st0" d="M8.3,5.7h29.9V0H8.3C3.7,0,0,3.7,0,8.3v31.5h5.7V23.6h26.6v-5.7H5.7V8.3C5.7,6.9,6.9,5.7,8.3,5.7"/>
	<path class="st0" d="M91,0c-2.2,0-4.3,0.9-5.9,2.4l-14,15l-14-15C55.6,0.9,53.5,0,51.3,0h-4.9v39.8h5.7V5.9c0.3,0,0.6,0.3,0.9,0.6
		l18.1,19.3L89.2,6.5c0.3-0.3,0.5-0.5,0.9-0.6v33.9h5.7V0H91z"/>
	<path class="st1" d="M196.7,7.8h3.2V0h-4.4c-2.1,0-4.1,0.8-5.6,2.1l-13.7,12.2L162.6,2.1C161.1,0.7,159.1,0,157,0h-4.4v7.8h3.2
		c0.4,0,0.8,0.2,1.1,0.4L170,19.9l-13.1,11.7c-0.3,0.3-0.7,0.4-1.1,0.4h-3.2v7.8h4.5c2,0,3.9-0.7,5.4-2.1l13.8-12.3l13.8,12.3
		c1.5,1.3,3.4,2.1,5.4,2.1h4.5V32h-3.2c-0.4,0-0.8-0.2-1.1-0.4l-13.1-11.7l13.1-11.7C195.8,7.9,196.3,7.8,196.7,7.8z"/>
</g>
</svg>
