<svg id="Layer_1" data-name="Layer 1" xmlns="http://www.w3.org/2000/svg" viewBox="0 0 96 96"><defs><style>.cls-1{fill:#00dc7d;}.cls-2{fill:#ffffff;}</style></defs><title>symbol</title><path class="cls-1" d="M48,48.74A51.26,51.26,0,0,1,16.52,59.48H0V88.8A7.2,7.2,0,0,0,7.2,96H88.8A7.2,7.2,0,0,0,96,88.8V59.48H79.48A51.26,51.26,0,0,1,48,48.74ZM58,83.46H38A5.72,5.72,0,0,1,38,72H58a5.72,5.72,0,0,1,0,11.44Z"/><path class="cls-2" d="M0,7.2V48H16.52a39.84,39.84,0,0,0,27.54-11,5.74,5.74,0,0,1,7.88,0A39.84,39.84,0,0,0,79.48,48H96V7.2A7.2,7.2,0,0,0,88.8,0H7.2A7.2,7.2,0,0,0,0,7.2Z"/></svg>